<svg xmlns="http://www.w3.org/2000/svg" width="760" height="180" viewBox="0 0 760 180" font-family="-apple-system,Segoe UI,Helvetica,Arial,sans-serif">
<rect x="0.5" y="0.5" width="759" height="179" rx="12" fill="#161b22" stroke="#30363d"/>
<text x="20" y="34" font-size="11" fill="#8b949e" font-weight="600" text-anchor="start" letter-spacing="1.5">GITHUB STARS</text>
<text x="20" y="92" font-size="46" fill="#e3b341" font-weight="700" text-anchor="start">122</text>
<text x="24" y="120" font-size="12" fill="#3fb950" font-weight="600" text-anchor="start">★ +15 / 30d</text>
<defs><linearGradient id="sg" x1="0" x2="0" y1="0" y2="1"><stop offset="0" stop-color="#e3b341" stop-opacity="0.4"/><stop offset="1" stop-color="#e3b341" stop-opacity="0"/></linearGradient></defs>
<path d="M220,148 L220.0,147.1 L220.2,146.2 L221.6,145.3 L223.1,144.4 L227.2,143.5 L227.8,142.6 L228.9,141.7 L229.6,140.8 L230.6,139.9 L233.7,139.0 L236.0,138.1 L236.3,137.2 L243.7,136.3 L244.7,135.4 L251.6,134.5 L253.5,133.6 L261.8,132.7 L279.9,131.8 L285.2,130.9 L286.4,130.0 L307.5,129.1 L322.8,128.2 L323.4,127.3 L324.7,126.4 L334.8,125.5 L343.8,124.6 L349.5,123.7 L351.7,122.8 L357.4,121.9 L360.5,121.0 L360.8,120.0 L361.5,119.1 L365.3,118.2 L366.8,117.3 L387.9,116.4 L389.3,115.5 L390.2,114.6 L393.3,113.7 L402.9,112.8 L403.0,111.9 L403.1,111.0 L407.4,110.1 L408.6,109.2 L411.2,108.3 L412.2,107.4 L418.9,106.5 L437.6,105.6 L441.8,104.7 L460.4,103.8 L461.6,102.9 L470.4,102.0 L475.4,101.1 L476.4,100.2 L476.5,99.3 L489.9,98.4 L514.5,97.5 L522.4,96.6 L524.1,95.7 L528.0,94.8 L539.2,93.9 L539.4,93.0 L545.0,92.1 L546.4,91.2 L553.7,90.3 L554.9,89.4 L563.4,88.5 L570.0,87.6 L571.3,86.7 L572.4,85.8 L573.1,84.9 L574.6,84.0 L575.4,83.1 L579.3,82.2 L580.3,81.3 L581.6,80.4 L584.4,79.5 L584.6,78.6 L586.3,77.7 L588.9,76.8 L589.1,75.9 L597.7,75.0 L603.9,74.1 L606.7,73.2 L606.8,72.3 L614.8,71.4 L618.7,70.5 L624.3,69.6 L628.1,68.7 L630.4,67.8 L631.3,66.9 L635.6,66.0 L637.7,65.0 L638.5,64.1 L641.9,63.2 L643.4,62.3 L645.5,61.4 L650.2,60.5 L655.9,59.6 L661.8,58.7 L665.5,57.8 L665.9,56.9 L666.8,56.0 L668.2,55.1 L668.4,54.2 L670.7,53.3 L671.1,52.4 L671.4,51.5 L674.5,50.6 L676.5,49.7 L685.7,48.8 L689.5,47.9 L689.9,47.0 L690.8,46.1 L694.6,45.2 L697.7,44.3 L707.2,43.4 L713.3,42.5 L720.2,41.6 L725.4,40.7 L727.6,39.8 L728.5,38.9 L729.5,38.0 L740.0,38.0 L740.0,148 Z" fill="url(#sg)"/>
<polyline points="220.0,147.1 220.2,146.2 221.6,145.3 223.1,144.4 227.2,143.5 227.8,142.6 228.9,141.7 229.6,140.8 230.6,139.9 233.7,139.0 236.0,138.1 236.3,137.2 243.7,136.3 244.7,135.4 251.6,134.5 253.5,133.6 261.8,132.7 279.9,131.8 285.2,130.9 286.4,130.0 307.5,129.1 322.8,128.2 323.4,127.3 324.7,126.4 334.8,125.5 343.8,124.6 349.5,123.7 351.7,122.8 357.4,121.9 360.5,121.0 360.8,120.0 361.5,119.1 365.3,118.2 366.8,117.3 387.9,116.4 389.3,115.5 390.2,114.6 393.3,113.7 402.9,112.8 403.0,111.9 403.1,111.0 407.4,110.1 408.6,109.2 411.2,108.3 412.2,107.4 418.9,106.5 437.6,105.6 441.8,104.7 460.4,103.8 461.6,102.9 470.4,102.0 475.4,101.1 476.4,100.2 476.5,99.3 489.9,98.4 514.5,97.5 522.4,96.6 524.1,95.7 528.0,94.8 539.2,93.9 539.4,93.0 545.0,92.1 546.4,91.2 553.7,90.3 554.9,89.4 563.4,88.5 570.0,87.6 571.3,86.7 572.4,85.8 573.1,84.9 574.6,84.0 575.4,83.1 579.3,82.2 580.3,81.3 581.6,80.4 584.4,79.5 584.6,78.6 586.3,77.7 588.9,76.8 589.1,75.9 597.7,75.0 603.9,74.1 606.7,73.2 606.8,72.3 614.8,71.4 618.7,70.5 624.3,69.6 628.1,68.7 630.4,67.8 631.3,66.9 635.6,66.0 637.7,65.0 638.5,64.1 641.9,63.2 643.4,62.3 645.5,61.4 650.2,60.5 655.9,59.6 661.8,58.7 665.5,57.8 665.9,56.9 666.8,56.0 668.2,55.1 668.4,54.2 670.7,53.3 671.1,52.4 671.4,51.5 674.5,50.6 676.5,49.7 685.7,48.8 689.5,47.9 689.9,47.0 690.8,46.1 694.6,45.2 697.7,44.3 707.2,43.4 713.3,42.5 720.2,41.6 725.4,40.7 727.6,39.8 728.5,38.9 729.5,38.0 740.0,38.0" fill="none" stroke="#e3b341" stroke-width="2" stroke-linejoin="round"/>
<circle cx="740.0" cy="38.0" r="3.5" fill="#e3b341"/>
<text x="20" y="167" font-size="10.5" fill="#8b949e" font-weight="400" text-anchor="start">since Jan 2026 · 122 stargazers</text>
<text x="740" y="167" font-size="10.5" fill="#8b949e" font-weight="400" text-anchor="end">updated 2026-09-12 06:40 UTC</text>
</svg>