<svg xmlns="http://www.w3.org/2000/svg" width="760" height="297" viewBox="0 0 760 297" font-family="-apple-system,Segoe UI,Helvetica,Arial,sans-serif">
<rect x="0.5" y="0.5" width="759" height="296" rx="12" fill="#161b22" stroke="#30363d"/>
<text x="20" y="32" font-size="11" fill="#8b949e" font-weight="600" text-anchor="start" letter-spacing="1.5">VERSION BREAKDOWN</text>
<text x="20" y="50" font-size="11.5" fill="#8b949e" font-weight="400" text-anchor="start">active installs by release</text>
<text x="740" y="42" font-size="24" fill="#41BDF5" font-weight="700" text-anchor="end">5.1k</text>
<text x="90" y="81.5" font-size="11.5" fill="#e6edf3" font-weight="700" text-anchor="end">2026.9.0</text>
<rect x="98" y="70" width="558.0" height="12" rx="3" fill="#3fb950" fill-opacity="0.95"/>
<text x="740" y="81.5" font-size="10.5" fill="#8b949e" font-weight="400" text-anchor="end">1.5k · 30%</text>
<text x="90" y="104.5" font-size="11.5" fill="#8b949e" font-weight="400" text-anchor="end">2026.8.7</text>
<rect x="98" y="93" width="424.2" height="12" rx="3" fill="#41BDF5" fill-opacity="0.65"/>
<text x="740" y="104.5" font-size="10.5" fill="#8b949e" font-weight="400" text-anchor="end">1.1k · 23%</text>
<text x="90" y="127.5" font-size="11.5" fill="#8b949e" font-weight="400" text-anchor="end">2026.8.6</text>
<rect x="98" y="116" width="293.0" height="12" rx="3" fill="#41BDF5" fill-opacity="0.65"/>
<text x="740" y="127.5" font-size="10.5" fill="#8b949e" font-weight="400" text-anchor="end">793 · 16%</text>
<text x="90" y="150.5" font-size="11.5" fill="#8b949e" font-weight="400" text-anchor="end">2026.8.5</text>
<rect x="98" y="139" width="35.8" height="12" rx="3" fill="#41BDF5" fill-opacity="0.65"/>
<text x="740" y="150.5" font-size="10.5" fill="#8b949e" font-weight="400" text-anchor="end">97 · 2%</text>
<text x="90" y="173.5" font-size="11.5" fill="#8b949e" font-weight="400" text-anchor="end">2026.8.4</text>
<rect x="98" y="162" width="21.8" height="12" rx="3" fill="#41BDF5" fill-opacity="0.65"/>
<text x="740" y="173.5" font-size="10.5" fill="#8b949e" font-weight="400" text-anchor="end">59 · 1%</text>
<text x="90" y="196.5" font-size="11.5" fill="#8b949e" font-weight="400" text-anchor="end">2026.8.3</text>
<rect x="98" y="185" width="2.0" height="12" rx="3" fill="#41BDF5" fill-opacity="0.65"/>
<text x="740" y="196.5" font-size="10.5" fill="#8b949e" font-weight="400" text-anchor="end">1 · 0%</text>
<text x="90" y="219.5" font-size="11.5" fill="#8b949e" font-weight="400" text-anchor="end">2026.8.2</text>
<rect x="98" y="208" width="124.9" height="12" rx="3" fill="#41BDF5" fill-opacity="0.65"/>
<text x="740" y="219.5" font-size="10.5" fill="#8b949e" font-weight="400" text-anchor="end">338 · 7%</text>
<text x="90" y="242.5" font-size="11.5" fill="#8b949e" font-weight="400" text-anchor="end">2026.7.8</text>
<rect x="98" y="231" width="136.4" height="12" rx="3" fill="#41BDF5" fill-opacity="0.65"/>
<text x="740" y="242.5" font-size="10.5" fill="#8b949e" font-weight="400" text-anchor="end">369 · 7%</text>
<text x="90" y="265.5" font-size="11.5" fill="#8b949e" font-weight="400" text-anchor="end">+48 older</text>
<rect x="98" y="254" width="274.9" height="12" rx="3" fill="#41BDF5" fill-opacity="0.65"/>
<text x="740" y="265.5" font-size="10.5" fill="#8b949e" font-weight="400" text-anchor="end">744 · 15%</text>
<text x="20" y="286" font-size="10.5" fill="#8b949e" font-weight="400" text-anchor="start">newest 2026.9.0 · 56 releases in use</text>
<text x="740" y="286" font-size="10.5" fill="#8b949e" font-weight="400" text-anchor="end">updated 2026-09-06 06:40 UTC</text>
</svg>