<svg xmlns="http://www.w3.org/2000/svg" width="760" height="297" viewBox="0 0 760 297" font-family="-apple-system,Segoe UI,Helvetica,Arial,sans-serif">
<rect x="0.5" y="0.5" width="759" height="296" rx="12" fill="#161b22" stroke="#30363d"/>
<text x="20" y="32" font-size="11" fill="#8b949e" font-weight="600" text-anchor="start" letter-spacing="1.5">VERSION BREAKDOWN</text>
<text x="20" y="50" font-size="11.5" fill="#8b949e" font-weight="400" text-anchor="start">active installs by release</text>
<text x="740" y="42" font-size="24" fill="#41BDF5" font-weight="700" text-anchor="end">5.7k</text>
<text x="90" y="81.5" font-size="11.5" fill="#e6edf3" font-weight="700" text-anchor="end">2026.10.0</text>
<rect x="98" y="70" width="8.2" height="12" rx="3" fill="#3fb950" fill-opacity="0.95"/>
<text x="740" y="81.5" font-size="10.5" fill="#8b949e" font-weight="400" text-anchor="end">41 · 1%</text>
<text x="90" y="104.5" font-size="11.5" fill="#8b949e" font-weight="400" text-anchor="end">2026.9.15</text>
<rect x="98" y="93" width="558.0" height="12" rx="3" fill="#41BDF5" fill-opacity="0.65"/>
<text x="740" y="104.5" font-size="10.5" fill="#8b949e" font-weight="400" text-anchor="end">2.8k · 49%</text>
<text x="90" y="127.5" font-size="11.5" fill="#8b949e" font-weight="400" text-anchor="end">2026.9.14</text>
<rect x="98" y="116" width="147.9" height="12" rx="3" fill="#41BDF5" fill-opacity="0.65"/>
<text x="740" y="127.5" font-size="10.5" fill="#8b949e" font-weight="400" text-anchor="end">736 · 13%</text>
<text x="90" y="150.5" font-size="11.5" fill="#8b949e" font-weight="400" text-anchor="end">2026.9.13</text>
<rect x="98" y="139" width="66.5" height="12" rx="3" fill="#41BDF5" fill-opacity="0.65"/>
<text x="740" y="150.5" font-size="10.5" fill="#8b949e" font-weight="400" text-anchor="end">331 · 6%</text>
<text x="90" y="173.5" font-size="11.5" fill="#8b949e" font-weight="400" text-anchor="end">2026.9.11</text>
<rect x="98" y="162" width="55.7" height="12" rx="3" fill="#41BDF5" fill-opacity="0.65"/>
<text x="740" y="173.5" font-size="10.5" fill="#8b949e" font-weight="400" text-anchor="end">277 · 5%</text>
<text x="90" y="196.5" font-size="11.5" fill="#8b949e" font-weight="400" text-anchor="end">2026.9.10</text>
<rect x="98" y="185" width="8.6" height="12" rx="3" fill="#41BDF5" fill-opacity="0.65"/>
<text x="740" y="196.5" font-size="10.5" fill="#8b949e" font-weight="400" text-anchor="end">43 · 1%</text>
<text x="90" y="219.5" font-size="11.5" fill="#8b949e" font-weight="400" text-anchor="end">2026.9.9</text>
<rect x="98" y="208" width="5.6" height="12" rx="3" fill="#41BDF5" fill-opacity="0.65"/>
<text x="740" y="219.5" font-size="10.5" fill="#8b949e" font-weight="400" text-anchor="end">28 · 0%</text>
<text x="90" y="242.5" font-size="11.5" fill="#8b949e" font-weight="400" text-anchor="end">2026.9.8</text>
<rect x="98" y="231" width="4.2" height="12" rx="3" fill="#41BDF5" fill-opacity="0.65"/>
<text x="740" y="242.5" font-size="10.5" fill="#8b949e" font-weight="400" text-anchor="end">21 · 0%</text>
<text x="90" y="265.5" font-size="11.5" fill="#8b949e" font-weight="400" text-anchor="end">+58 older</text>
<rect x="98" y="254" width="289.3" height="12" rx="3" fill="#41BDF5" fill-opacity="0.65"/>
<text x="740" y="265.5" font-size="10.5" fill="#8b949e" font-weight="400" text-anchor="end">1.4k · 25%</text>
<text x="20" y="286" font-size="10.5" fill="#8b949e" font-weight="400" text-anchor="start">newest 2026.10.0 · 66 releases in use</text>
<text x="740" y="286" font-size="10.5" fill="#8b949e" font-weight="400" text-anchor="end">updated 2026-10-03 06:55 UTC</text>
</svg>